<svg width="562" height="897" viewBox="0 0 562 897" fill="none" xmlns="http://www.w3.org/2000/svg">
<g filter="url(#filter0_bd_2_427)">
<rect x="58" y="54" width="446" height="781" rx="20" fill="#F3EAFF" fill-opacity="0.2" shape-rendering="crispEdges"/>
<path d="M257.105 202.357C259.467 198.761 259.073 177.718 257.105 168.894C269.308 185.276 288.76 177.718 296.961 171.891L302.373 199.86C299.913 204.189 289.285 213.145 280.231 214.344C271.178 215.543 260.057 207.685 257.105 202.357Z" fill="white" stroke="#393939"/>
<path d="M341.39 810.104C341.39 812.807 317.363 815 287.725 815C258.087 815 234.059 812.807 234.059 810.104C234.059 807.401 258.087 805.207 287.725 805.207C317.363 805.207 341.39 807.401 341.39 810.104Z" fill="#393939"/>
<path d="M89.2378 406.214C89.2378 406.214 77.7526 411.46 80.6245 430.112C83.4963 448.767 169.634 570.007 191.455 651.614C213.279 733.219 196.05 800.834 287.358 793.257C378.666 785.679 390.725 681.342 410.825 599.153C430.924 516.963 480.886 464.502 483.757 427.197C486.627 389.893 463.081 396.303 463.081 396.303" stroke="#393939" stroke-width="1.33333" stroke-miterlimit="10"/>
<path d="M213.548 515.889C213.548 515.889 221.742 570.783 222.151 573.694C222.561 576.605 213.956 608.208 219.694 625.675C225.429 643.142 234.032 670.173 237.719 678.073C241.407 685.975 241.817 686.805 242.226 699.282C242.635 711.757 239.359 737.124 243.865 745.442C248.372 753.759 257.386 758.332 266.398 756.67C275.412 755.006 279.919 748.355 278.688 737.956C277.46 727.56 273.364 713.836 270.905 702.193C268.446 690.55 265.989 680.984 264.35 673.913C262.711 666.847 263.121 671.419 262.711 644.388C262.302 617.36 260.663 604.468 259.432 591.161C258.206 577.854 258.615 575.773 258.206 572.03C257.795 568.287 272.953 516.304 272.953 516.304L213.139 511.732L213.548 515.889Z" fill="#393939"/>
<path d="M213.548 515.889C213.548 515.889 221.742 570.783 222.151 573.694C222.561 576.605 213.956 608.208 219.694 625.675C225.429 643.142 234.032 670.173 237.719 678.073C241.407 685.975 241.817 686.805 242.226 699.282C242.635 711.757 239.359 737.124 243.865 745.442C248.372 753.759 257.386 758.332 266.398 756.67C275.412 755.006 279.919 748.355 278.688 737.956C277.46 727.56 273.364 713.836 270.905 702.193C268.446 690.55 265.989 680.984 264.35 673.913C262.711 666.847 263.121 671.419 262.711 644.388C262.302 617.36 260.663 604.468 259.432 591.161C258.206 577.854 258.615 575.773 258.206 572.03C257.795 568.287 272.953 516.304 272.953 516.304L213.139 511.732L213.548 515.889Z" stroke="#393939" stroke-width="1.33333" stroke-miterlimit="10"/>
<path d="M236.931 674.333C241.196 677.33 252.48 680.326 263.502 668.34" stroke="black" stroke-width="5"/>
<path d="M278.689 737.957C277.46 727.561 273.362 713.834 270.906 702.191C268.447 690.548 265.988 680.984 264.351 673.914C264.351 673.914 266.399 681.814 256.974 687.635C250.711 691.509 245.539 690.222 241.326 687.589C241.843 690.231 242.037 693.504 242.227 699.281C242.636 711.758 239.359 737.123 243.864 745.44C248.371 753.76 257.385 758.332 266.399 756.67C275.412 755.006 279.917 748.353 278.689 737.957Z" fill="white"/>
<path d="M278.689 737.957C277.46 727.561 273.362 713.834 270.906 702.191C268.447 690.548 265.988 680.984 264.351 673.914C264.351 673.914 266.399 681.814 256.974 687.635C250.711 691.509 245.539 690.222 241.326 687.589C241.843 690.231 242.037 693.504 242.227 699.281C242.636 711.758 239.359 737.123 243.864 745.44C248.371 753.76 257.385 758.332 266.399 756.67C275.412 755.006 279.917 748.353 278.689 737.957Z" stroke="#393939" stroke-width="1.33333" stroke-miterlimit="10"/>
<path d="M266.398 756.67C275.412 755.006 279.917 748.353 278.689 737.957C278.591 737.114 278.445 736.219 278.309 735.336C275.996 746.952 269.614 753.895 258.615 752.096C249.841 750.658 244.198 739.502 241.545 732.736C241.751 738.103 242.381 742.703 243.864 745.44C248.371 753.76 257.385 758.332 266.398 756.67Z" fill="white"/>
<path d="M266.398 756.67C275.412 755.006 279.917 748.353 278.689 737.957C278.591 737.114 278.445 736.219 278.309 735.336C275.996 746.952 269.614 753.895 258.615 752.096C249.841 750.658 244.198 739.502 241.545 732.736C241.751 738.103 242.381 742.703 243.864 745.44C248.371 753.76 257.385 758.332 266.398 756.67Z" stroke="#393939" stroke-width="1.33333" stroke-miterlimit="10"/>
<path d="M302.86 583.674C302.86 583.674 303.682 598.228 306.55 604.052C309.417 609.873 315.562 610.705 319.249 618.191C322.936 625.676 324.167 627.755 319.66 643.558C317.27 651.936 312.648 665.989 320.041 673.11C331.47 684.118 341.149 668.8 345.126 658.95C348.866 649.682 349.035 640.075 347.927 630.249C346.288 615.695 346.288 614.448 346.288 611.952C346.288 609.458 356.122 595.317 350.795 581.178C345.471 567.042 336.046 568.286 336.046 568.286C336.046 568.286 307.367 562.882 302.86 583.674Z" fill="#393939"/>
<path d="M320.041 673.11C312.648 665.989 317.27 651.936 319.66 643.558L347.927 630.249C349.035 640.075 348.866 649.682 345.126 658.95C341.149 668.8 331.47 684.118 320.041 673.11Z" fill="white"/>
<path d="M319.103 614.399C323.367 617.396 334.652 620.393 345.674 608.406" stroke="black" stroke-width="5"/>
<path d="M302.86 583.674C302.86 583.674 303.682 598.228 306.55 604.052C309.417 609.873 315.562 610.705 319.249 618.191C322.936 625.676 324.167 627.755 319.66 643.558C317.27 651.936 312.648 665.989 320.041 673.11C331.47 684.118 341.149 668.8 345.126 658.95C348.866 649.682 349.035 640.075 347.927 630.249C346.288 615.695 346.288 614.448 346.288 611.952C346.288 609.458 356.122 595.317 350.795 581.178C345.471 567.042 336.046 568.286 336.046 568.286C336.046 568.286 307.367 562.882 302.86 583.674Z" stroke="#393939" stroke-width="1.33333" stroke-miterlimit="10"/>
<path d="M291.39 520.464C291.39 520.464 294.257 574.524 299.993 585.339C305.73 596.15 324.575 601.557 331.539 596.982C338.505 592.405 343.831 568.702 345.879 554.98C347.927 541.256 350.386 522.543 350.386 522.543L291.39 520.464Z" fill="#393939"/>
<path d="M291.39 520.464C291.39 520.464 294.257 574.524 299.993 585.339C305.73 596.15 324.575 601.557 331.539 596.982C338.505 592.405 343.831 568.702 345.879 554.98C347.927 541.256 350.386 522.543 350.386 522.543L291.39 520.464Z" stroke="#393939" stroke-width="1.33333" stroke-miterlimit="10"/>
<path d="M216.825 369.507C216.825 369.507 215.359 421.49 214.54 442.283C213.72 463.075 209.624 497.176 207.985 505.909C206.346 514.643 216.825 529.197 216.825 529.197C216.825 529.197 210.877 561.294 240.375 565.454C269.874 569.611 262.43 537.485 265.47 527.496L272.851 515.509L276.23 476.552L291.548 529.197C291.548 529.197 295.977 531.491 300.812 529.197C329.491 525.869 338.505 527.95 347.519 527.533C344.689 531.491 348.626 535.487 348.626 535.487C348.626 535.487 355.022 500.026 351.578 460.57C344.204 423.56 352.434 403.607 345.06 389.885L337.685 376.163C337.685 376.163 280.739 379.074 259.844 378.656C238.948 378.242 219.692 370.756 219.692 370.756" fill="#393939"/>
<path d="M216.825 369.507C216.825 369.507 215.359 421.49 214.54 442.283C213.72 463.075 209.624 497.176 207.985 505.909C206.346 514.643 216.825 529.197 216.825 529.197C216.825 529.197 210.877 561.294 240.375 565.454C269.874 569.611 262.43 537.485 265.47 527.496L272.851 515.509L276.23 476.552L291.548 529.197C291.548 529.197 295.977 531.491 300.812 529.197C329.491 525.869 338.505 527.95 347.519 527.533C344.689 531.491 348.626 535.487 348.626 535.487C348.626 535.487 355.022 500.026 351.578 460.57C344.204 423.56 352.434 403.607 345.06 389.885L337.685 376.163C337.685 376.163 280.739 379.074 259.844 378.656C238.948 378.242 219.692 370.756 219.692 370.756" stroke="#393939" stroke-width="1.33333" stroke-miterlimit="10"/>
<path d="M116.205 366.998L106.981 375.084C106.981 375.084 93.1454 380.19 90.6302 384.445C88.1151 388.703 86.017 397.64 83.9231 398.491C81.825 399.342 76.3754 399.766 78.4714 402.321C80.5674 404.876 84.7594 404.023 84.7594 404.023C84.7594 404.023 86.4383 412.535 87.6959 414.235C88.9535 415.939 93.5646 412.535 101.951 409.129C110.337 405.725 111.594 407.001 113.271 401.044C114.948 395.087 117.882 384.445 117.882 384.445L123.753 378.914L116.205 366.998Z" fill="white"/>
<path d="M116.205 366.998L106.981 375.084C106.981 375.084 93.1454 380.19 90.6302 384.445C88.1151 388.703 86.017 397.64 83.9231 398.491C81.825 399.342 76.3754 399.766 78.4714 402.321C80.5674 404.876 84.7594 404.023 84.7594 404.023C84.7594 404.023 86.4383 412.535 87.6959 414.235C88.9535 415.939 93.5646 412.535 101.951 409.129C110.337 405.725 111.594 407.001 113.271 401.044C114.948 395.087 117.882 384.445 117.882 384.445L123.753 378.914L116.205 366.998Z" stroke="#393939" stroke-width="1.33333" stroke-miterlimit="10"/>
<path d="M116.205 366.998L109.567 372.817L117.818 384.681C117.855 384.543 117.882 384.446 117.882 384.446L123.753 378.914L116.205 366.998Z" fill="#FFA654"/>
<path d="M116.205 366.998L109.567 372.817L117.818 384.681C117.855 384.543 117.882 384.446 117.882 384.446L123.753 378.914L116.205 366.998Z" stroke="#393939" stroke-width="1.33333" stroke-miterlimit="10"/>
<path d="M84.7603 404.023L103.616 394.453C104.823 393.841 106.29 394.285 106.955 395.479C108.133 397.598 109.81 400.933 110.336 403.598" stroke="#393939" stroke-width="1.33333" stroke-miterlimit="10"/>
<path d="M106.928 393.61L110 392.05C111.988 391.041 114.399 391.997 115.185 394.108L115.454 394.828C116.226 396.898 115.102 399.197 113.012 399.826L110.774 400.499L106.928 393.61Z" fill="#393939"/>
<path d="M106.928 393.61L110 392.05C111.988 391.041 114.399 391.997 115.185 394.108L115.454 394.828C116.226 396.898 115.102 399.197 113.012 399.826L110.774 400.499L106.928 393.61Z" stroke="#393939" stroke-width="1.33333" stroke-miterlimit="10"/>
<path d="M103.616 394.453C103.616 394.453 106.023 393.149 106.023 388.327" stroke="#393939" stroke-width="1.33333" stroke-miterlimit="10"/>
<path d="M437.471 363.512L447.894 369.924C447.894 369.924 462.372 372.619 465.553 376.389C468.731 380.159 472.268 388.616 474.475 389.101C476.681 389.586 482.125 389.084 480.477 391.957C478.829 394.827 474.556 394.698 474.556 394.698C474.556 394.698 474.3 403.373 473.338 405.266C472.379 407.156 467.271 404.58 458.445 402.641C449.617 400.704 448.587 402.175 445.955 396.584C443.325 390.994 438.682 381 438.682 381L431.986 376.537L437.471 363.512Z" fill="white"/>
<path d="M437.471 363.512L447.894 369.924C447.894 369.924 462.372 372.619 465.553 376.389C468.731 380.159 472.268 388.616 474.475 389.101C476.681 389.586 482.125 389.084 480.477 391.957C478.829 394.827 474.556 394.698 474.556 394.698C474.556 394.698 474.3 403.373 473.338 405.266C472.379 407.156 467.271 404.58 458.445 402.641C449.617 400.704 448.587 402.175 445.955 396.584C443.325 390.994 438.682 381 438.682 381L431.986 376.537L437.471 363.512Z" stroke="#393939" stroke-width="1.33333" stroke-miterlimit="10"/>
<path d="M437.471 363.512L444.97 368.127L438.784 381.218C438.724 381.091 438.682 381 438.682 381L431.986 376.538L437.471 363.512Z" fill="#FFA654"/>
<path d="M437.471 363.512L444.97 368.127L438.784 381.218C438.724 381.091 438.682 381 438.682 381L431.986 376.538L437.471 363.512Z" stroke="#393939" stroke-width="1.33333" stroke-miterlimit="10"/>
<path d="M474.557 394.699L454.394 388.455C453.103 388.052 451.728 388.742 451.269 390.03C450.454 392.318 449.349 395.889 449.269 398.607" stroke="#393939" stroke-width="1.33333" stroke-miterlimit="10"/>
<path d="M450.988 388.181L447.703 387.165C445.576 386.505 443.357 387.857 442.93 390.07L442.781 390.825C442.36 392.995 443.845 395.074 446.01 395.339L448.327 395.624L450.988 388.181Z" fill="#393939"/>
<path d="M450.988 388.181L447.703 387.165C445.576 386.505 443.357 387.857 442.93 390.07L442.781 390.825C442.36 392.995 443.845 395.074 446.01 395.339L448.327 395.624L450.988 388.181Z" stroke="#393939" stroke-width="1.33333" stroke-miterlimit="10"/>
<path d="M454.394 388.454C454.394 388.454 451.806 387.576 451.013 382.821" stroke="#393939" stroke-width="1.33333" stroke-miterlimit="10"/>
<path d="M255.629 201.026C255.629 201.026 196.704 216.346 195.027 225.709C193.35 235.07 182.03 265.712 182.03 267.84C182.03 269.967 168.194 318.483 168.194 318.483C168.194 318.483 162.744 322.74 162.325 324.442C162.325 324.442 141.78 336.356 133.816 345.296C125.849 354.231 112.432 361.465 113.271 364.445C114.109 367.424 118.301 384.872 131.718 384.446C145.134 384.023 186.643 363.169 195.027 354.657C203.413 346.145 215.572 319.759 215.572 319.759C215.572 319.759 207.186 347.423 209.284 353.806C211.38 360.19 213.476 371.681 220.183 374.659C226.892 377.638 248.276 385.297 286.848 384.446C325.42 383.597 335.903 382.319 341.352 374.234C346.804 366.147 349.738 357.212 350.996 346.998C352.253 336.781 352.253 332.954 352.253 329.122C352.253 325.293 361.476 346.145 384.119 360.19C406.757 374.234 420.595 387.85 424.787 383.17C428.979 378.489 443.655 371.681 441.14 359.339C438.623 346.998 429.4 344.87 418.08 333.377C406.757 321.889 401.727 309.973 401.727 309.973C401.727 309.973 402.987 304.014 400.469 301.035L397.952 298.055C397.952 298.055 406.338 281.032 395.437 264.01C384.538 246.986 380.763 241.88 371.539 230.389C362.316 218.899 364.412 215.92 355.19 210.389C345.965 204.855 335.637 205.281 314.675 201.026C293.711 196.771 304.696 207.604 277.279 207.352C259.073 208.351 255.629 201.026 255.629 201.026Z" fill="#FFA654"/>
<path d="M255.629 201.026C255.629 201.026 196.704 216.346 195.027 225.709C193.35 235.07 182.03 265.712 182.03 267.84C182.03 269.967 168.194 318.483 168.194 318.483C168.194 318.483 162.744 322.74 162.325 324.442C162.325 324.442 141.78 336.356 133.816 345.296C125.849 354.231 112.432 361.465 113.271 364.445C114.109 367.424 118.301 384.872 131.718 384.446C145.134 384.023 186.643 363.169 195.027 354.657C203.413 346.145 215.572 319.759 215.572 319.759C215.572 319.759 207.186 347.423 209.284 353.806C211.38 360.19 213.476 371.681 220.183 374.659C226.892 377.638 248.276 385.297 286.848 384.446C325.42 383.597 335.903 382.319 341.352 374.234C346.804 366.147 349.738 357.212 350.996 346.998C352.253 336.781 352.253 332.954 352.253 329.122C352.253 325.293 361.476 346.145 384.119 360.19C406.757 374.234 420.595 387.85 424.787 383.17C428.979 378.489 443.655 371.681 441.14 359.339C438.623 346.998 429.4 344.87 418.08 333.377C406.757 321.889 401.727 309.973 401.727 309.973C401.727 309.973 402.987 304.014 400.469 301.035L397.952 298.055C397.952 298.055 406.338 281.032 395.437 264.01C384.538 246.986 380.763 241.88 371.539 230.389C362.316 218.899 364.412 215.92 355.19 210.389C345.965 204.855 334.16 205.281 313.198 201.026C292.234 196.771 304.696 207.105 277.279 206.853C257.597 206.853 255.629 201.026 255.629 201.026Z" stroke="#393939" stroke-width="1.33333" stroke-miterlimit="10"/>
<path d="M352.254 329.123C352.254 329.123 356.027 303.589 358.544 282.309C361.059 261.03 355.188 244.008 351.416 237.625" stroke="#393939" stroke-width="1.33333" stroke-miterlimit="10"/>
<path d="M214.733 246.986C214.733 246.986 210.122 262.306 213.895 275.076C217.668 287.841 217.668 294.225 217.248 301.035C216.829 307.844 215.572 319.76 215.572 319.76" stroke="#393939" stroke-width="1.33333" stroke-miterlimit="10"/>
<path d="M219.765 343.592C221.022 342.741 244.921 309.545 244.921 309.545L249.113 312.526L222.699 347.849" fill="white"/>
<path d="M219.765 343.592C221.022 342.741 244.921 309.545 244.921 309.545L249.113 312.526L222.699 347.849" stroke="#393939" stroke-miterlimit="10"/>
<path d="M312.842 315.079L336.321 356.359L340.935 352.955L317.873 313.377" fill="white"/>
<path d="M312.842 315.079L336.321 356.359L340.935 352.955L317.873 313.377" stroke="#393939" stroke-miterlimit="10"/>
<path d="M250.371 381.467C250.371 381.467 248.694 378.49 235.278 364.87" stroke="#393939" stroke-width="1.33333" stroke-miterlimit="10"/>
<path d="M286.848 384.446C286.848 384.446 301.941 377.638 305.297 369.552" stroke="#393939" stroke-width="1.33333" stroke-miterlimit="10"/>
<path d="M300.683 382.745C300.683 382.745 305.713 382.319 309.069 377.213" stroke="#393939" stroke-width="1.33333" stroke-miterlimit="10"/>
<path d="M258.389 165.717C258.389 165.717 256.969 175.802 261.511 184.155C266.054 192.51 270.594 200.866 274.853 200.002C279.109 199.138 294.438 182.715 297.558 178.393C300.68 174.072 302.951 165.429 302.951 165.429C302.951 165.429 276.838 178.393 258.389 165.717Z" fill="white"/>
<path d="M258.389 165.717C258.389 165.717 256.969 175.802 261.511 184.155C266.054 192.51 270.594 200.866 274.853 200.002C279.109 199.138 294.438 182.715 297.558 178.393C300.68 174.072 302.951 165.429 302.951 165.429C302.951 165.429 276.838 178.393 258.389 165.717Z" stroke="#393939" stroke-width="1.33333" stroke-miterlimit="10"/>
<path d="M302.952 165.429C302.952 165.429 276.839 178.395 258.39 165.716C258.39 165.716 258.019 168.39 258.271 172.116C262.367 178.797 270.582 188.596 282.491 194.464C288.424 189.03 295.54 181.189 297.559 178.395C300.681 174.072 302.952 165.429 302.952 165.429Z" fill="#393939"/>
<path d="M302.952 165.429C302.952 165.429 276.839 178.395 258.39 165.716C258.39 165.716 258.019 168.39 258.271 172.116C262.367 178.797 270.582 188.596 282.491 194.464C288.424 189.03 295.54 181.189 297.559 178.395C300.681 174.072 302.952 165.429 302.952 165.429Z" stroke="#393939" stroke-width="1.33333" stroke-miterlimit="10"/>
<path d="M250.189 131.831C250.189 131.831 243.865 126.181 242.247 131.175C240.631 136.169 241.298 141.228 245.227 145.631C249.154 150.034 251.636 150.712 251.636 150.712L250.189 131.831Z" fill="white"/>
<path d="M250.189 131.831C250.189 131.831 243.865 126.181 242.247 131.175C240.631 136.169 241.298 141.228 245.227 145.631C249.154 150.034 251.636 150.712 251.636 150.712L250.189 131.831Z" stroke="#393939" stroke-width="1.33333" stroke-miterlimit="10"/>
<path d="M310.899 138.059C310.899 138.059 317.996 133.448 318.849 138.634C319.7 143.821 318.28 148.719 313.737 152.464C309.197 156.209 306.642 156.497 306.642 156.497L310.899 138.059Z" fill="white"/>
<path d="M310.899 138.059C310.899 138.059 317.996 133.448 318.849 138.634C319.7 143.821 318.28 148.719 313.737 152.464C309.197 156.209 306.642 156.497 306.642 156.497L310.899 138.059Z" stroke="#393939" stroke-width="1.33333" stroke-miterlimit="10"/>
<path d="M277.123 79.8596C277.123 79.8596 258.672 75.5369 254.982 90.5204C251.293 105.502 247.887 128.551 248.171 139.212C248.454 149.87 253.848 165.428 256.686 168.597C259.525 171.768 267.756 180.121 273.717 180.411C279.677 180.699 293.87 176.952 300.397 170.326C306.925 163.7 305.791 157.362 309.196 146.701C312.604 136.043 317.712 120.771 314.59 105.502C311.468 90.2325 313.739 93.9774 301.818 84.4703C289.897 74.9632 273.717 68.9131 277.123 79.8596Z" fill="white"/>
<path d="M277.123 79.8596C277.123 79.8596 258.672 75.5369 254.982 90.5204C251.293 105.502 247.887 128.551 248.171 139.212C248.454 149.87 253.848 165.428 256.686 168.597C259.525 171.768 267.756 180.121 273.717 180.411C279.677 180.699 293.87 176.952 300.397 170.326C306.925 163.7 305.791 157.362 309.196 146.701C312.604 136.043 317.712 120.771 314.59 105.502C311.468 90.2325 313.739 93.9774 301.818 84.4703C289.897 74.9632 273.717 68.9131 277.123 79.8596Z" stroke="#393939" stroke-width="1.33333" stroke-miterlimit="10"/>
<path d="M314.59 105.502C311.468 90.2322 313.739 93.977 301.818 84.4699C289.897 74.9628 273.717 68.9127 277.123 79.8593C277.123 79.8593 258.672 75.5386 254.982 90.5201C252.688 99.8366 250.504 112.271 249.249 122.907L249.875 122.788C249.875 122.788 253.564 122.212 254.131 114.721C254.699 107.231 254.982 96.8581 258.106 96.5702C261.228 96.2823 266.905 104.35 276.272 101.179C285.638 98.0097 290.747 92.5354 298.696 95.9944C306.642 99.4514 309.482 106.077 307.495 108.958C305.507 111.84 303.803 116.162 305.791 119.619C307.776 123.076 309.482 125.957 310.047 128.551C310.471 130.483 310.736 137.863 310.844 141.489C313.974 131.358 317.236 118.436 314.59 105.502Z" fill="#393939"/>
<path d="M314.59 105.502C311.468 90.2322 313.739 93.977 301.818 84.4699C289.897 74.9628 273.717 68.9127 277.123 79.8593C277.123 79.8593 258.672 75.5386 254.982 90.5201C252.688 99.8366 250.504 112.271 249.249 122.907L249.875 122.788C249.875 122.788 253.564 122.212 254.131 114.721C254.699 107.231 254.982 96.8581 258.106 96.5702C261.228 96.2823 266.905 104.35 276.272 101.179C285.638 98.0097 290.747 92.5354 298.696 95.9944C306.642 99.4514 309.482 106.077 307.495 108.958C305.507 111.84 303.803 116.162 305.791 119.619C307.776 123.076 309.482 125.957 310.047 128.551C310.471 130.483 310.736 137.863 310.844 141.489C313.974 131.358 317.236 118.436 314.59 105.502V105.502Z" stroke="#393939" stroke-width="1.33333" stroke-miterlimit="10"/>
<path d="M273.149 124.805L274.567 129.416L272.582 134.6" stroke="#393939" stroke-width="1.33333" stroke-miterlimit="10"/>
<path d="M272.298 142.955C272.298 143.819 276.838 148.142 283.652 144.685" stroke="#393939" stroke-width="1.33333" stroke-miterlimit="10"/>
<path d="M279.678 157.362C279.678 158.793 278.533 159.955 277.123 159.955C275.713 159.955 274.568 158.793 274.568 157.362C274.568 155.929 275.713 154.769 277.123 154.769C278.533 154.769 279.678 155.929 279.678 157.362Z" fill="#393939"/>
<path d="M266.337 130.279C266.337 131.551 265.573 132.584 264.635 132.584C263.692 132.584 262.931 131.551 262.931 130.279C262.931 129.007 263.692 127.974 264.635 127.974C265.573 127.974 266.337 129.007 266.337 130.279Z" fill="#393939"/>
<path d="M293.869 131.143C293.869 132.418 293.106 133.449 292.168 133.449C291.225 133.449 290.464 132.418 290.464 131.143C290.464 129.871 291.225 128.84 292.168 128.84C293.106 128.84 293.869 129.871 293.869 131.143Z" fill="#393939"/>
<path d="M258.389 121.348C258.389 121.348 264.35 119.044 270.878 123.077" stroke="#393939" stroke-width="1.33333" stroke-miterlimit="10"/>
<path d="M287.058 124.805C287.058 124.805 294.439 120.772 302.952 125.093L287.058 124.805Z" fill="white"/>
<path d="M287.058 124.805C287.058 124.805 294.439 120.772 302.952 125.093" stroke="#393939" stroke-width="1.33333" stroke-miterlimit="10"/>
<path d="M215.773 382.657C240.047 391.98 299.224 405.032 341.737 382.657" stroke="black"/>
<path d="M214.789 389.649C240.012 398.694 301.5 411.358 345.674 389.649" stroke="black" stroke-width="3" stroke-linejoin="round"/>
<path d="M266.946 425.609C269.406 442.923 276 482.946 282.692 504.522C291.056 531.492 307.786 588.428 321.071 589.427" stroke="white"/>
<path d="M230.535 581.436C233.651 584.766 241.95 590.026 250.216 584.433" stroke="white" stroke-linejoin="round"/>
<path d="M358.959 264.788L212.156 263.789C211.668 265.598 211.376 271.486 214.106 280.565C216.835 289.645 217.518 300.138 217.518 304.25L355.464 304.743C358.193 291.322 359.609 272.847 358.959 264.788Z" fill="black" stroke="#393939"/>
<path d="M246.772 204.355C257.597 213.345 293.025 219.838 310.738 201.358" stroke="#393939"/>
<path d="M246.772 202.357C257.597 211.347 293.025 217.84 310.738 199.361" stroke="#393939" stroke-dasharray="1 1"/>
</g>
<defs>
<filter id="filter0_bd_2_427" x="0" y="0" width="562" height="897" filterUnits="userSpaceOnUse" color-interpolation-filters="sRGB">
<feFlood flood-opacity="0" result="BackgroundImageFix"/>
<feGaussianBlur in="BackgroundImage" stdDeviation="2"/>
<feComposite in2="SourceAlpha" operator="in" result="effect1_backgroundBlur_2_427"/>
<feColorMatrix in="SourceAlpha" type="matrix" values="0 0 0 0 0 0 0 0 0 0 0 0 0 0 0 0 0 0 127 0" result="hardAlpha"/>
<feOffset dy="4"/>
<feGaussianBlur stdDeviation="29"/>
<feComposite in2="hardAlpha" operator="out"/>
<feColorMatrix type="matrix" values="0 0 0 0 0.670833 0 0 0 0 0.670833 0 0 0 0 0.670833 0 0 0 0.21 0"/>
<feBlend mode="normal" in2="effect1_backgroundBlur_2_427" result="effect2_dropShadow_2_427"/>
<feBlend mode="normal" in="SourceGraphic" in2="effect2_dropShadow_2_427" result="shape"/>
</filter>
</defs>
</svg>
