
<svg width="40" height="40" viewBox="0 0 40 40" fill="none" xmlns="http://www.w3.org/2000/svg">
<path d="M18.5418 0.0146535V5.92882C11.8991 6.88253 6.79181 12.5969 6.79181 19.5001C6.79181 27.071 12.9292 33.2084 20.5001 33.2084C23.5786 33.2084 26.4221 32.194 28.7095 30.4785L32.8944 34.6634C29.5183 37.4247 25.2001 39.0834 20.5001 39.0834C9.68427 39.0834 0.916809 30.3159 0.916809 19.5001C0.916809 9.34611 8.64635 0.995778 18.5418 0.0146535ZM39.9856 21.4584C39.5939 25.3966 38.039 28.9921 35.6635 31.8924L31.4786 27.7094C32.8239 25.9156 33.7365 23.781 34.0694 21.4584H39.9875H39.9856ZM22.4624 0.0146535C31.7136 0.933112 39.0691 8.29057 39.9895 17.5417H34.0714C33.2136 11.5394 28.4647 6.79049 22.4624 5.93078V0.0126953V0.0146535Z" fill="white"/>
</svg>
